<svg t="1562227792879" class="icon" viewBox="0 0 1075 1024" version="1.1" xmlns="http://www.w3.org/2000/svg" p-id="1745" width="128" height="128"><path d="M803.84 388.1984s110.08-29.0816 180.736 41.472a112.9472 112.9472 0 0 0 41.216-88.3712c0-60.7744-29.8496-115.3024-111.1552-95.3856-15.5648-57.2416-65.3824-114.1248-130.8672-114.1248-55.808 0-100.0448 28.5184-121.7024 76.9024 24.1152 11.264 107.7248 58.2656 141.7216 179.5072z" p-id="1746" fill="#21d5f0"></path><path d="M765.6448 434.8928c174.4896-44.032 238.592 78.3872 238.592 212.48 0 132.6592-95.744 244.8896-214.7328 244.8896H176.3328c-96.256 0-174.2336-96.512-174.2336-213.0432 0-116.5824 88.6784-193.9456 190.8736-193.9456 11.264-185.6512 128.512-302.1824 291.7376-302.1824 140.544 0 247.3984 125.4912 280.9344 251.8016zM487.424 401.92c-50.688 0-90.3168 16.128-118.8864 49.3056-27.648 31.3344-41.0112 71.8848-41.0112 122.112 0 49.7664 13.312 90.3168 40.96 121.6512 28.6208 32.256 68.2496 48.8448 118.9376 48.8448 33.1776 0 62.208-7.3728 86.1696-21.1968 11.9808 15.6672 23.9616 32.7168 36.352 50.688l35.072-30.4128a1164.3904 1164.3904 0 0 0-36.4032-49.7664c25.8048-30.4128 39.168-70.5024 39.168-119.808 0-50.688-13.824-91.6992-41.472-122.5728-29.0304-32.768-68.6592-48.8448-118.8864-48.8448z m0 47.4624c34.0992 0 60.3648 10.5984 78.7968 32.7168 17.92 22.1184 27.136 52.5312 27.136 91.2384 0 31.744-6.4 58.0608-18.432 78.336-15.616-18.432-31.744-36.4032-47.872-53.4528l-31.3344 30.4128c15.2064 16.128 30.8736 34.0992 47.4624 54.3744a112.128 112.128 0 0 1-55.808 13.312c-34.048 0-60.7744-11.4688-79.2064-34.048-17.9712-22.1184-26.7264-51.6096-26.7264-88.9344 0-37.7856 8.704-67.2768 26.7264-89.3952 18.8928-23.04 45.1584-34.56 79.2576-34.56z" p-id="1747" fill="#21d5f0"></path></svg>